<svg class="icon icon-squareCurl" xmlns="http://www.w3.org/2000/svg" width="32" height="32" viewBox="0 0 32 32" aria-labelledby="title">
	<path fill="#cda279" d="M0.014 16l15.986 
	15.986 15.986-15.986-15.986-15.986zM16 
	29.323l-5.995-5.995 4.704-4.706 3.664 
	3.664-2.206 2.206-1.244-1.244 0.999-0.999-1.332-1.333-2.332 
	2.332 3.911 3.911 4.869-4.871-11.2-11.2-4.871 4.871 3.707 
	3.705 2.434-2.436-1.332-1.333-1.102 1.104-1.042-1.040 
	2.206-2.206 3.54 3.538-4.704 4.704-5.996-5.995 13.323-13.323 
	5.995 5.995-4.745 4.747-3.602-3.602 2.206-2.206 1.244 1.244-0.999 
	0.999 1.332 1.332 2.331-2.331-3.911-3.911-4.871 4.869 11.2 11.2 
	4.869-4.871-3.701-3.698-2.436 2.436 1.333 1.332 1.102-1.102 1.042 
	1.040-2.206 2.206-3.602-3.6 4.747-4.747 5.995 5.991z"></path>
</svg>